<svg width="941" height="196" viewBox="0 0 941 196" fill="none" xmlns="http://www.w3.org/2000/svg">
<g clip-path="url(#clip0_897_458)">
<path fill-rule="evenodd" clip-rule="evenodd" d="M147.275 196.362L53.2511 196.362L0.822436 147.271C50.0061 147.271 98.0922 147.024 147.275 147.271V196.362Z" fill="url(#paint0_linear_897_458)"/>
<path fill-rule="evenodd" clip-rule="evenodd" d="M147.275 196.362L53.2511 196.362L0.822436 147.271C50.0061 147.271 98.0922 147.024 147.275 147.271V196.362Z" fill="url(#paint1_linear_897_458)"/>
<path fill-rule="evenodd" clip-rule="evenodd" d="M147.275 196.362L53.2511 196.362L0.822436 147.271C50.0061 147.271 98.0922 147.024 147.275 147.271V196.362Z" fill="url(#paint2_linear_897_458)"/>
<path fill-rule="evenodd" clip-rule="evenodd" d="M147.55 1.0018L52.8143 0L0.00131187 49.0884H54.3065H54.3157H66.0851L66.0943 49.0718L77.7991 49.0635L77.7806 49.0884L87.9068 49.0884L87.9438 49.0553L103.941 49.0387C103.941 49.0387 103.885 49.0718 103.858 49.0884H152.329L147.55 1.0018Z" fill="url(#paint3_linear_897_458)"/>
<path fill-rule="evenodd" clip-rule="evenodd" d="M147.55 1.0018L52.8143 0L0.00131187 49.0884H54.3065H54.3157H66.0851L66.0943 49.0718L77.7991 49.0635L77.7806 49.0884L87.9068 49.0884L87.9438 49.0553L103.941 49.0387C103.941 49.0387 103.885 49.0718 103.858 49.0884H152.329L147.55 1.0018Z" fill="url(#paint4_linear_897_458)"/>
<path fill-rule="evenodd" clip-rule="evenodd" d="M147.549 1.00195L147.549 76.9083H198L198 40.2075L147.549 1.00195Z" fill="#153FB5"/>
<path fill-rule="evenodd" clip-rule="evenodd" d="M147.549 1.00195L147.549 76.9083H198L198 40.2075L147.549 1.00195Z" fill="url(#paint5_linear_897_458)"/>
<path fill-rule="evenodd" clip-rule="evenodd" d="M147.549 1.00195L147.549 76.9083H198L198 40.2075L147.549 1.00195Z" fill="url(#paint6_linear_897_458)"/>
<path fill-rule="evenodd" clip-rule="evenodd" d="M147.272 196.362V119.453L197.999 119.453L197.994 156.275L147.272 196.362Z" fill="#153FB5"/>
<path fill-rule="evenodd" clip-rule="evenodd" d="M147.272 196.362V119.453L197.999 119.453L197.994 156.275L147.272 196.362Z" fill="url(#paint7_linear_897_458)"/>
<path fill-rule="evenodd" clip-rule="evenodd" d="M147.272 196.362V119.453L197.999 119.453L197.994 156.275L147.272 196.362Z" fill="url(#paint8_linear_897_458)"/>
<path d="M0 49.0884L53.2506 0L53.2506 196.353L0 146.764L0 49.0884Z" fill="#D9D9D9"/>
<path d="M0 49.0884L53.2506 0L53.2506 196.353L0 146.764L0 49.0884Z" fill="url(#paint9_linear_897_458)"/>
<path d="M0 49.0884L53.2506 0L53.2506 196.353L0 146.764L0 49.0884Z" fill="url(#paint10_linear_897_458)"/>
<path d="M0 49.0884L53.2506 0L53.2506 196.353L0 146.764L0 49.0884Z" fill="url(#paint11_linear_897_458)"/>
<path d="M80.6094 80.0386H117.961V117.39H80.6094V80.0386Z" fill="#D9D9D9"/>
<path d="M80.6094 80.0386H117.961V117.39H80.6094V80.0386Z" fill="url(#paint12_linear_897_458)"/>
<path d="M392.57 147.362V47.1616H437.12C449.82 47.1616 459.52 49.8616 466.22 55.2616C472.92 60.5616 476.27 68.4616 476.27 78.9616C476.27 87.1616 474.27 93.7116 470.27 98.6116C466.37 103.412 460.77 106.812 453.47 108.812L481.37 147.362H451.37L426.77 110.912H418.37V147.362H392.57ZM418.37 90.8116H433.07C439.17 90.8116 443.52 89.8616 446.12 87.9616C448.82 86.0616 450.17 83.1116 450.17 79.1116C450.17 75.1116 448.87 72.1616 446.27 70.2616C443.77 68.3616 439.37 67.4116 433.07 67.4116H418.37V90.8116Z" fill="#FFFFFF"/>
<path d="M343.776 148.862C332.876 148.862 323.376 146.662 315.276 142.262C307.176 137.762 300.926 131.662 296.526 123.962C292.126 116.162 289.926 107.262 289.926 97.2616C289.926 87.2616 292.126 78.4116 296.526 70.7116C301.026 62.9116 307.326 56.8116 315.426 52.4116C323.526 47.9116 332.976 45.6616 343.776 45.6616C350.376 45.6616 356.576 46.5116 362.376 48.2116C368.176 49.9116 373.976 52.6616 379.776 56.4616L370.926 75.8116C365.926 73.0116 361.276 71.0116 356.976 69.8116C352.676 68.6116 348.276 68.0116 343.776 68.0116C338.276 68.0116 333.426 69.2616 329.226 71.7616C325.026 74.1616 321.776 77.5616 319.476 81.9616C317.176 86.2616 316.026 91.3616 316.026 97.2616C316.026 103.062 317.176 108.162 319.476 112.562C321.776 116.962 325.026 120.412 329.226 122.912C333.426 125.312 338.276 126.512 343.776 126.512C348.276 126.512 352.676 125.912 356.976 124.712C361.276 123.512 365.926 121.512 370.926 118.712L379.776 138.062C373.976 141.862 368.176 144.612 362.376 146.312C356.576 148.012 350.376 148.862 343.776 148.862Z" fill="#FFFFFF"/>
<path d="M908.002 47.3616H883.002V148.362H908.002V47.3616Z" fill="#FFFFFF"/>
<path d="M723.002 47.3616H698.002V148.362H723.002V47.3616Z" fill="#FFFFFF"/>
<path d="M686.496 97.2672C686.496 107.252 684.362 116.108 680.094 123.837C675.827 131.565 669.688 137.589 661.68 141.91C653.672 146.23 644.249 148.39 633.411 148.39H595V46.5762H633.411C644.345 46.5762 653.792 48.6877 661.752 52.912C669.712 57.1363 675.827 63.0891 680.094 70.7695C684.362 78.45 686.496 87.2826 686.496 97.2672ZM631.253 126.357C640.844 126.357 648.301 123.812 653.624 118.724C658.947 113.636 661.608 106.484 661.608 97.2672C661.608 88.0507 658.947 80.8979 653.624 75.8096C648.301 70.7213 640.844 68.1773 631.253 68.1773H619.6V126.357H631.253Z" fill="#FFFFFF"/>
<path d="M744.002 147.562V47.3616H784.502L803.252 112.012L822.002 47.3616H862.802V147.562H837.002V72.1116L814.352 147.562H792.302L769.802 72.1116V147.562H744.002Z" fill="#FFFFFF"/>
<path d="M583.91 91.9072C583.878 91.8756 583.878 91.8447 583.878 91.813C583.846 91.372 583.783 90.9318 583.72 90.4915C583.688 90.2397 583.657 89.957 583.625 89.7053C583.562 89.3592 583.468 89.0449 583.405 88.7305C583.342 88.227 583.278 87.7234 583.184 87.2515C583.09 86.9055 582.995 86.5594 582.932 86.2134C582.805 85.7099 582.679 85.2379 582.553 84.7344C582.363 83.9481 582.112 83.1618 581.89 82.3748C581.733 81.9037 581.576 81.4001 581.418 80.9282C581.071 79.9218 580.661 78.9154 580.25 77.9399C579.997 77.3414 579.745 76.7752 579.46 76.1782C579.114 75.4854 578.799 74.7941 578.453 74.1013C578.168 73.5669 577.852 73.0633 577.568 72.5288C577.221 71.931 576.875 71.3332 576.497 70.7663C576.18 70.2635 575.866 69.7599 575.517 69.2571C575.108 68.6593 574.666 68.0623 574.225 67.4954C573.909 67.0551 573.594 66.6149 573.277 66.2055C572.584 65.325 571.858 64.4754 571.102 63.6575C570.913 63.4374 570.723 63.2482 570.534 63.0597C569.746 62.241 568.956 61.4239 568.137 60.6693C567.821 60.3851 567.475 60.1024 567.158 59.8189C566.496 59.2528 565.833 58.6874 565.17 58.1522C564.792 57.8687 564.413 57.5536 564.003 57.2717C563.342 56.7681 562.679 56.2962 561.984 55.8552C561.574 55.5725 561.165 55.289 560.754 55.0373C560.029 54.5661 559.303 54.1568 558.546 53.7474C558.135 53.4964 557.758 53.2755 557.346 53.0554C556.274 52.4893 555.139 51.954 554.034 51.4821C553.467 51.2311 552.867 51.011 552.3 50.7908C551.668 50.539 551.038 50.2873 550.407 50.0671C549.744 49.847 549.114 49.6578 548.451 49.4693C548.073 49.3751 547.724 49.2175 547.346 49.1226C547.063 49.06 546.779 48.9974 546.494 48.9349C545.958 48.7773 545.391 48.6514 544.823 48.5255L544.57 48.4629C544.413 48.4313 544.255 48.4313 544.097 48.3996C542.804 48.1162 541.479 47.8968 540.122 47.7385C539.901 47.7076 539.713 47.6759 539.523 47.6443C538.955 47.5817 538.386 47.55 537.82 47.5184C537.504 47.4875 537.22 47.4558 536.935 47.4249H536.526C536.337 47.3932 536.116 47.3932 535.928 47.3932C535.485 47.3932 535.075 47.3616 534.633 47.3616H534.002C532.425 47.3616 530.879 47.4558 529.333 47.5817C529.207 47.6134 529.081 47.6134 528.986 47.6134C528.735 47.6443 528.481 47.6759 528.229 47.7076C527.661 47.7702 527.093 47.8651 526.526 47.9277C526.084 48.0219 525.642 48.0853 525.201 48.1787C524.665 48.2737 524.128 48.3687 523.592 48.4629C523.119 48.5881 522.645 48.6831 522.173 48.809C521.699 48.9349 521.226 49.06 520.753 49.1859C520.217 49.3118 519.712 49.4693 519.207 49.6261C518.796 49.7528 518.355 49.9096 517.945 50.0355C517.409 50.2247 516.872 50.4131 516.335 50.6016L515.2 51.0735C514.663 51.2936 514.127 51.5138 513.591 51.7346C513.213 51.9224 512.834 52.0807 512.455 52.2691C511.951 52.5209 511.446 52.7727 510.973 53.0245C510.564 53.2129 510.152 53.4331 509.774 53.6532C509.332 53.905 508.891 54.1568 508.449 54.4085C508.008 54.6912 507.535 54.9747 507.092 55.2574L506.051 55.9185C505.546 56.2962 505.011 56.6414 504.505 57.0191C504.254 57.2083 504.001 57.3651 503.78 57.5536C503.181 58.0255 502.581 58.4982 501.981 58.9693C501.857 59.096 501.73 59.1902 501.603 59.3154C500.909 59.8822 500.246 60.48 499.585 61.1088C499.553 61.1088 499.553 61.1404 499.522 61.1404C498.512 62.1159 497.534 63.0906 496.619 64.1294C496.241 64.538 495.893 64.9783 495.547 65.4193C495.515 65.4193 495.515 65.4193 495.515 65.4502C494.946 66.1113 494.41 66.8342 493.874 67.527C493.748 67.6846 493.621 67.873 493.527 68.0306C493.086 68.6276 492.675 69.2254 492.265 69.8232C492.045 70.1376 491.855 70.4844 491.635 70.798C491.35 71.2699 491.036 71.7418 490.751 72.2454C490.657 72.4029 490.562 72.5288 490.499 72.6856C490.309 73.0007 490.121 73.3467 489.963 73.6928C489.742 74.1013 489.521 74.5099 489.3 74.9509C488.985 75.5487 488.701 76.1782 488.417 76.7752C488.291 77.122 488.133 77.4364 488.007 77.7507C487.691 78.5061 487.376 79.2607 487.093 80.016C487.028 80.2362 486.935 80.4563 486.84 80.6764C486.556 81.526 486.272 82.3748 486.019 83.2561C485.987 83.4129 485.925 83.6021 485.861 83.7596C485.64 84.6092 485.419 85.4588 485.231 86.3393C485.199 86.5278 485.136 86.6846 485.104 86.8745C485.073 86.9371 485.073 86.968 485.073 87.0314C484.884 87.8809 484.757 88.7305 484.599 89.5794C484.568 89.7995 484.537 90.0513 484.506 90.3031C484.379 90.9951 484.316 91.7188 484.252 92.4101C484.221 92.8511 484.157 93.2604 484.126 93.669C484.094 94.1726 484.094 94.6754 484.063 95.1473C484.032 95.8084 484 96.4371 484 97.0666V98.168C484.032 98.8909 484.032 99.647 484.094 100.401C484.126 100.747 484.157 101.125 484.189 101.471C484.252 102.163 484.284 102.886 484.379 103.578C484.442 104.019 484.506 104.46 484.568 104.869C484.663 105.497 484.757 106.095 484.884 106.693C484.978 107.228 485.104 107.731 485.199 108.235C485.325 108.738 485.419 109.241 485.545 109.713C485.704 110.311 485.893 110.877 486.05 111.475C486.145 111.758 486.209 112.041 486.303 112.324C486.303 112.418 486.366 112.481 486.366 112.544C486.935 114.243 487.566 115.911 488.291 117.515C488.354 117.672 488.417 117.829 488.48 117.987C489.111 119.34 489.773 120.661 490.499 121.95C490.657 122.234 490.814 122.485 490.973 122.769C491.036 122.863 491.129 122.988 491.192 123.083C492.108 124.624 493.086 126.072 494.158 127.487C494.285 127.645 494.442 127.833 494.568 127.991C495.609 129.312 496.714 130.602 497.881 131.829C498.071 132.05 498.291 132.237 498.512 132.458C499.648 133.622 500.847 134.723 502.077 135.73C502.361 135.982 502.644 136.202 502.928 136.421C504.191 137.397 505.484 138.341 506.81 139.222C507.124 139.41 507.408 139.599 507.723 139.788C509.143 140.668 510.594 141.455 512.077 142.178C512.33 142.304 512.581 142.431 512.834 142.557C514.443 143.311 516.115 143.972 517.819 144.57C517.881 144.601 517.976 144.632 518.07 144.664C518.197 144.695 518.324 144.727 518.45 144.79C520.09 145.324 521.731 145.765 523.434 146.142C523.497 146.142 523.56 146.174 523.623 146.174H523.655C525.201 146.489 526.746 146.772 528.355 146.961C529.396 147.055 530.437 147.118 531.479 147.181C532.33 147.243 533.214 147.275 534.097 147.275H556.432V122.171H534.159C532.552 122.171 530.942 122.014 529.428 121.699C529.271 121.699 529.112 121.668 528.954 121.604C527.63 121.322 526.305 120.912 525.074 120.409C524.665 120.252 524.253 120.094 523.876 119.906C523.466 119.748 523.088 119.528 522.676 119.34C521.919 118.93 521.162 118.459 520.437 117.987C517.062 115.785 514.285 112.765 512.361 109.21C512.045 108.581 511.73 107.951 511.446 107.322C511.225 106.85 511.035 106.378 510.878 105.906C510.657 105.309 510.468 104.711 510.279 104.113C509.868 102.572 509.585 100.999 509.458 99.3628C509.396 98.7341 509.364 98.073 509.364 97.4126C509.364 96.7522 509.396 96.0911 509.458 95.4624C509.585 93.7949 509.868 92.1907 510.31 90.6491C510.405 90.3656 510.468 90.0829 510.564 89.8311C510.878 88.8248 511.257 87.8493 511.698 86.9371C511.92 86.4652 512.14 86.0559 512.361 85.6156C512.708 84.9553 513.086 84.2941 513.528 83.6963C513.875 83.1935 514.223 82.6899 514.601 82.218C515.043 81.6202 515.547 81.0541 516.053 80.4879C516.115 80.4563 516.147 80.4246 516.177 80.3621C516.202 80.3387 516.235 80.3048 516.261 80.2791C515.675 80.898 515.118 81.5411 514.601 82.218C515.704 80.7706 516.999 79.4808 518.387 78.2852C517.925 78.6644 517.508 79.0843 517.08 79.4944C517.181 79.3677 517.269 79.2516 517.377 79.1973C517.692 78.8837 518.039 78.5686 518.387 78.2852C518.418 78.2852 518.418 78.2543 518.45 78.2543C518.923 77.8766 519.428 77.4997 519.932 77.1529C520.375 76.8378 520.847 76.5242 521.32 76.2408C521.383 76.1782 521.477 76.1465 521.573 76.084C523.686 74.8876 525.989 73.9445 528.418 73.3467C529.649 73.0633 530.91 72.8748 532.236 72.7489C532.866 72.7173 533.528 72.6856 534.191 72.6856H533.214C533.528 72.6547 533.844 72.6547 534.159 72.6547C534.317 72.6547 534.475 72.6547 534.633 72.6856H534.76C535.232 72.7173 535.674 72.7173 536.116 72.7806C536.715 72.8123 537.284 72.8748 537.851 72.9691C538.671 73.0942 539.46 73.2834 540.28 73.4726C540.596 73.5669 540.911 73.6294 541.227 73.7561C541.699 73.8812 542.142 74.0388 542.583 74.1963C542.709 74.2589 542.836 74.2906 542.931 74.3222C543.845 74.6682 544.729 75.0452 545.548 75.4854C545.707 75.5804 545.864 75.643 545.99 75.7063C546.811 76.1465 547.568 76.6184 548.293 77.122C548.419 77.2155 548.577 77.3097 548.703 77.4047C550.376 78.6312 551.889 80.016 553.215 81.5886C554.634 83.3194 555.832 85.2063 556.748 87.2515H533.434V112.388H581.859C582.333 110.877 582.742 109.335 583.09 107.762C583.215 107.165 583.311 106.536 583.405 105.906H583.436V105.781C583.468 105.687 583.468 105.624 583.5 105.529C583.688 104.491 583.815 103.453 583.942 102.414C584.004 101.66 584.066 100.936 584.129 100.212C584.161 99.552 584.193 98.8909 584.193 98.2305V95.1789C584.129 94.1409 584.036 93.1345 583.91 92.0965V91.9072Z" fill="#FFFFFF"/>
<path d="M247.41 0.361572H245V195.776H247.41V0.361572Z" fill="#FFFFFF"/>
</g>
<defs>
<linearGradient id="paint0_linear_897_458" x1="200.353" y1="171.643" x2="-0.0031812" y2="171.643" gradientUnits="userSpaceOnUse">
<stop stop-color="#134270"/>
<stop offset="1" stop-color="#3665E8"/>
</linearGradient>
<linearGradient id="paint1_linear_897_458" x1="194.499" y1="171.643" x2="-0.00318733" y2="171.643" gradientUnits="userSpaceOnUse">
<stop stop-color="#3104FF"/>
<stop offset="1" stop-color="#B6A6FF"/>
</linearGradient>
<linearGradient id="paint2_linear_897_458" x1="147.549" y1="195.623" x2="130.545" y2="118.389" gradientUnits="userSpaceOnUse">
<stop stop-color="#A7A8FF"/>
<stop offset="1" stop-color="#3104FF"/>
</linearGradient>
<linearGradient id="paint3_linear_897_458" x1="200.8" y1="24.5442" x2="-0.00244594" y2="24.5442" gradientUnits="userSpaceOnUse">
<stop stop-color="#3104FF"/>
<stop offset="1" stop-color="#B6A6FF"/>
</linearGradient>
<linearGradient id="paint4_linear_897_458" x1="152.329" y1="0.733296" x2="136.035" y2="77.6881" gradientUnits="userSpaceOnUse">
<stop stop-color="#A7A8FF"/>
<stop offset="1" stop-color="#3104FF"/>
</linearGradient>
<linearGradient id="paint5_linear_897_458" x1="211.891" y1="31.056" x2="147.545" y2="31.056" gradientUnits="userSpaceOnUse">
<stop stop-color="#3104FF"/>
<stop offset="1" stop-color="#B6A6FF"/>
</linearGradient>
<linearGradient id="paint6_linear_897_458" x1="196.359" y1="1.89988" x2="148.216" y2="61.4024" gradientUnits="userSpaceOnUse">
<stop stop-color="#A7A8FF"/>
<stop offset="0.815" stop-color="#3104FF"/>
</linearGradient>
<linearGradient id="paint7_linear_897_458" x1="210.12" y1="165.803" x2="147.276" y2="165.803" gradientUnits="userSpaceOnUse">
<stop stop-color="#3104FF"/>
<stop offset="1" stop-color="#B6A6FF"/>
</linearGradient>
<linearGradient id="paint8_linear_897_458" x1="194.95" y1="195.449" x2="145.625" y2="136.891" gradientUnits="userSpaceOnUse">
<stop stop-color="#A7A8FF"/>
<stop offset="0.815" stop-color="#3104FF"/>
</linearGradient>
<linearGradient id="paint9_linear_897_458" x1="-17.9435" y1="107.137" x2="53.2506" y2="107.87" gradientUnits="userSpaceOnUse">
<stop stop-color="#153FB5"/>
<stop offset="1" stop-color="#3665E8"/>
</linearGradient>
<linearGradient id="paint10_linear_897_458" x1="-16.9445" y1="98.1767" x2="53.2519" y2="98.1767" gradientUnits="userSpaceOnUse">
<stop stop-color="#3104FF"/>
<stop offset="1" stop-color="#B6A6FF"/>
</linearGradient>
<linearGradient id="paint11_linear_897_458" x1="-4.81062e-05" y1="2.93319" x2="70.0067" y2="3.88118" gradientUnits="userSpaceOnUse">
<stop stop-color="#A7A8FF"/>
<stop offset="0.815" stop-color="#3104FF"/>
</linearGradient>
<linearGradient id="paint12_linear_897_458" x1="80.6308" y1="80.482" x2="101.271" y2="117.632" gradientUnits="userSpaceOnUse">
<stop stop-color="#A7A8FF"/>
<stop offset="0.815" stop-color="#3104FF"/>
</linearGradient>
<clipPath id="clip0_897_458">
<rect width="941" height="196" fill="white"/>
</clipPath>
</defs>
</svg>
