<svg width="1280" height="640" viewBox="0 0 1280 640" fill="none" xmlns="http://www.w3.org/2000/svg">
<path fill-rule="evenodd" clip-rule="evenodd" d="M396.598 368.659L347.88 418.008H216V368.659H264.842H264.85H275.436L275.444 368.676L285.971 368.684L285.954 368.659H295.062L295.095 368.692L309.483 368.709C309.483 368.709 309.433 368.676 309.408 368.659H396.598Z" fill="url(#paint0_linear_865_242)"/>
<path fill-rule="evenodd" clip-rule="evenodd" d="M396.598 271.349L347.88 222L216 222V271.349H264.842H264.85H275.436L275.444 271.332L285.971 271.324L285.954 271.349H295.062L295.095 271.316L309.483 271.299C309.483 271.299 309.433 271.332 309.408 271.349H396.598Z" fill="url(#paint1_linear_865_242)"/>
<path fill-rule="evenodd" clip-rule="evenodd" d="M347.761 222.041V271.387H335.563L347.761 222.041Z" fill="#134270"/>
<path fill-rule="evenodd" clip-rule="evenodd" d="M347.758 418V368.654H335.56L347.758 418Z" fill="#134270"/>
<path fill-rule="evenodd" clip-rule="evenodd" d="M348 222L396.605 271.349V368.617L348 417.966V222Z" fill="url(#paint2_linear_865_242)"/>
<path fill-rule="evenodd" clip-rule="evenodd" d="M347.756 222.042V271.39H396.598L347.756 222.042Z" fill="#153FB5"/>
<path fill-rule="evenodd" clip-rule="evenodd" d="M347.756 418V368.651H396.598L347.756 418Z" fill="#153FB5"/>
<rect x="264" y="271" width="84" height="98" fill="url(#paint3_linear_865_242)"/>
<rect x="216" y="222" width="48" height="196" fill="#D9D9D9"/>
<rect x="216" y="222" width="48" height="196" fill="url(#paint4_linear_865_242)"/>
<path d="M306 272L347.569 296V344L306 368L264.431 344V296L306 272Z" fill="url(#paint5_linear_865_242)"/>
<path fill-rule="evenodd" clip-rule="evenodd" d="M268 320C276.113 307.368 290.286 299 306.413 299C322.541 299 336.714 307.368 344.827 320C336.714 332.631 322.541 341 306.413 341C290.286 341 276.113 332.631 268 320Z" fill="url(#paint6_linear_865_242)"/>
<circle cx="306" cy="320" r="11" fill="url(#paint7_linear_865_242)"/>
<path d="M447.014 222.411H444.604V417.825H447.014V222.411Z" fill="#4D4C4D"/>
<path d="M1013.79 344.423C1000.19 344.423 989.193 333.412 989.193 319.835C989.193 306.226 1000.19 295.214 1013.79 295.214C1027.35 295.214 1038.35 306.226 1038.35 319.835C1038.35 333.412 1027.35 344.423 1013.79 344.423ZM1013.79 270C986.282 270 964.003 292.305 964.003 319.835C964.003 347.332 986.282 369.638 1013.79 369.638C1041.26 369.638 1063.54 347.332 1063.54 319.835C1063.54 292.305 1041.26 270 1013.79 270Z" fill="#4D4C4D"/>
<path d="M924.849 271.715C922.135 270.995 919.254 270.62 916.321 270.62H790.003V369.976H815.314V304.312C815.314 303.937 815.314 303.593 815.344 303.217V295.772H848.97C853.098 295.772 856.538 298.681 857.347 302.561V369.976H882.665V295.772H916.321C921.038 295.772 924.849 299.588 924.849 304.312V369.976H949.978V304.312C949.978 288.639 939.288 275.469 924.849 271.715Z" fill="#4D4C4D"/>
<path d="M588.469 318.906C588.469 328.89 586.335 337.747 582.067 345.475C577.799 353.204 571.661 359.228 563.652 363.548C555.644 367.868 546.221 370.029 535.383 370.029H496.973V268.215H535.383C546.317 268.215 555.764 270.326 563.724 274.55C571.685 278.775 577.799 284.727 582.067 292.408C586.335 300.088 588.469 308.921 588.469 318.906ZM533.226 347.996C542.816 347.996 550.273 345.451 555.596 340.363C560.919 335.274 563.581 328.122 563.581 318.906C563.581 309.689 560.919 302.536 555.596 297.448C550.273 292.36 542.816 289.816 533.226 289.816H521.573V347.996H533.226Z" fill="#4D4C4D"/>
<path d="M627.023 268.215H602.423V370.029H627.023V268.215Z" fill="#4D4C4D"/>
<path d="M771.604 268.215H747.004V370.029H771.604V268.215Z" fill="#4D4C4D"/>
<path d="M735.495 318.906C735.495 328.89 733.361 337.747 729.093 345.475C724.825 353.204 718.687 359.228 710.679 363.548C702.67 367.868 693.247 370.029 682.41 370.029H643.999V268.215H682.41C693.343 268.215 702.79 270.326 710.751 274.55C718.711 278.775 724.825 284.727 729.093 292.408C733.361 300.088 735.495 308.921 735.495 318.906ZM680.252 347.996C689.843 347.996 697.299 345.451 702.622 340.363C707.945 335.274 710.606 328.122 710.606 318.906C710.606 309.689 707.945 302.536 702.622 297.448C697.299 292.36 689.843 289.816 680.252 289.816H668.599V347.996H680.252Z" fill="#4D4C4D"/>
<defs>
<linearGradient id="paint0_linear_865_242" x1="396.598" y1="393.334" x2="215.997" y2="393.334" gradientUnits="userSpaceOnUse">
<stop stop-color="#134270"/>
<stop offset="1" stop-color="#3665E8"/>
</linearGradient>
<linearGradient id="paint1_linear_865_242" x1="396.598" y1="246.674" x2="215.997" y2="246.674" gradientUnits="userSpaceOnUse">
<stop stop-color="#002FB2"/>
<stop offset="1" stop-color="#3665E8"/>
</linearGradient>
<linearGradient id="paint2_linear_865_242" x1="331.6" y1="323.814" x2="396.607" y2="324.067" gradientUnits="userSpaceOnUse">
<stop stop-color="#002FB2"/>
<stop offset="1" stop-color="#3665E8"/>
</linearGradient>
<linearGradient id="paint3_linear_865_242" x1="264" y1="320" x2="348" y2="320" gradientUnits="userSpaceOnUse">
<stop stop-color="#1D4C91"/>
<stop offset="1" stop-color="#2756D9"/>
</linearGradient>
<linearGradient id="paint4_linear_865_242" x1="199.826" y1="328.944" x2="264.002" y2="329.541" gradientUnits="userSpaceOnUse">
<stop stop-color="#153FB5"/>
<stop offset="1" stop-color="#3665E8"/>
</linearGradient>
<linearGradient id="paint5_linear_865_242" x1="306" y1="272" x2="306" y2="368" gradientUnits="userSpaceOnUse">
<stop stop-color="white"/>
<stop offset="1" stop-color="#BBBBBB"/>
</linearGradient>
<linearGradient id="paint6_linear_865_242" x1="306" y1="272.5" x2="306" y2="368.5" gradientUnits="userSpaceOnUse">
<stop stop-color="#5179E8"/>
<stop offset="1" stop-color="#1D4C91"/>
</linearGradient>
<linearGradient id="paint7_linear_865_242" x1="306" y1="309" x2="306" y2="331" gradientUnits="userSpaceOnUse">
<stop stop-color="white"/>
<stop offset="1" stop-color="#BBBBBB"/>
</linearGradient>
</defs>
</svg>
